<svg width="36" height="36" viewBox="0 0 36 36" fill="none" xmlns="http://www.w3.org/2000/svg">
<rect width="36" height="36" rx="8" fill="#8BB785"/>
<path d="M24.5144 24.5944C27.8067 20.4198 26.9173 16.2792 24.5522 14.8285C22.3174 13.4577 20.367 14.0101 19.1953 14.89L18.3332 15.5347M24.5144 24.5944C23.7242 25.5963 22.6931 26.6003 21.3837 27.5695C20.0952 28.5232 19.451 29 18.3333 29C17.2157 29 16.5714 28.5232 15.2829 27.5695C8.5181 22.5624 9.18172 16.6274 12.1145 14.8285C14.3492 13.4577 16.2997 14.0101 17.4713 14.89L18.3332 15.5347M24.5144 24.5944L19.9101 19.3707C19.7216 19.1568 19.4061 19.1108 19.1643 19.2619L17.3426 20.4005C16.7015 20.8012 15.8694 20.711 15.3291 20.1823C14.6153 19.4839 14.6873 18.3147 15.4814 17.7092L18.3332 15.5347" stroke="white" stroke-width="1.5" stroke-linecap="round" stroke-linejoin="round"/>
<g clip-path="url(#clip0_24_75)">
<path d="M19.1667 7.16667C19.1667 7.811 18.6443 8.33333 18 8.33333C17.3557 8.33333 16.8333 7.811 16.8333 7.16667C16.8333 6.52233 17.3557 6 18 6C18.6443 6 19.1667 6.52233 19.1667 7.16667Z" stroke="white"/>
<path d="M21.3333 10.8333C21.3333 11.4777 20.811 12 20.1667 12C19.5223 12 19 11.4777 19 10.8333C19 10.189 19.5223 9.66667 20.1667 9.66667C20.811 9.66667 21.3333 10.189 21.3333 10.8333Z" stroke="white"/>
<path d="M17 10.8333C17 11.4777 16.4777 12 15.8333 12C15.189 12 14.6667 11.4777 14.6667 10.8333C14.6667 10.189 15.189 9.66667 15.8333 9.66667C16.4777 9.66667 17 10.189 17 10.8333Z" stroke="white"/>
</g>
<defs>
<clipPath id="clip0_24_75">
<rect width="8" height="8" fill="white" transform="translate(14 5)"/>
</clipPath>
</defs>
</svg>
